<?xml version="1.0" encoding="UTF-8" standalone="no"?>
<svg
   width="12000"
   height="6300"
   version="1.1"
   viewBox="0 0 3175 1666.875"
   id="svg3"
   sodipodi:docname="og_mp.svg"
   xml:space="preserve"
   inkscape:version="1.4 (86a8ad7, 2024-10-11)"
   inkscape:export-filename="og_mp_c.png"
   inkscape:export-xdpi="9.6000004"
   inkscape:export-ydpi="9.6000004"
   xmlns:inkscape="http://www.inkscape.org/namespaces/inkscape"
   xmlns:sodipodi="http://sodipodi.sourceforge.net/DTD/sodipodi-0.dtd"
   xmlns="http://www.w3.org/2000/svg"
   xmlns:svg="http://www.w3.org/2000/svg"><defs
     id="defs3"><rect
       x="1897.6642"
       y="1947.6027"
       width="3033.7659"
       height="1660.4562"
       id="rect4" /></defs><sodipodi:namedview
     id="namedview3"
     pagecolor="#ffffff"
     bordercolor="#000000"
     borderopacity="0.25"
     inkscape:showpageshadow="2"
     inkscape:pageopacity="0.0"
     inkscape:pagecheckerboard="0"
     inkscape:deskcolor="#d1d1d1"
     inkscape:document-units="mm"
     inkscape:zoom="0.0625"
     inkscape:cx="1920"
     inkscape:cy="4976"
     inkscape:window-width="2560"
     inkscape:window-height="1521"
     inkscape:window-x="-11"
     inkscape:window-y="-11"
     inkscape:window-maximized="1"
     inkscape:current-layer="svg3" /><rect
     style="fill:#212121;fill-opacity:1;stroke-width:0.25611"
     id="rect3"
     width="3175"
     height="1666.875"
     x="1.4210855e-14"
     y="0" /><g
     id="g3"
     transform="matrix(0.81290322,0,0,0.81290322,1171.2936,97.768049)"><rect
       x="50"
       y="50"
       width="924"
       height="924"
       ry="238"
       fill="#212121"
       stroke-width="0.606"
       id="rect1" /><path
       transform="scale(0.265)"
       d="m 2821,516 -0.018,0.0215 c -5.72,-0.195 -16.2,9.23 -21,12.4 -18.1,11.7 -36.4,23.2 -54.5,35 -67.3,43.9 -135,86.6 -203,130 -87.9,56.8 -176,113 -264,169 -49.9,32.2 -102,59.3 -137,109 -8.5,11.9 -15.3,25.1 -21.6,38.3 -64.4,133 16.2,282 0.27,421 -3.39,29.5 -8.27,58.1 -16,86.3 l -135,135 251,251 133,-133 a 585,1426 45 0 0 0.639,0.416 l 3.76,-3.76 c 38.7,-11 80.3,-15.9 120,-16.3 114,-1.36 228,46.1 342,17.4 43.6,-11 90.4,-36.9 120,-71.5 26.3,-31.3 46,-68.5 68,-103 46.8,-72.9 93.7,-146 140,-219 33.5,-53.3 67.6,-106 102,-159 15.9,-24.7 30.4,-50.7 47.2,-74.9 14.9,-21.5 28.7,-44 42.5,-66.2 3.6,-5.75 15,-18.2 14.8,-25 -0.153,-4.72 -7.14,-9.57 -10.2,-12.6 -10.7,-10.3 -20.5,-21.7 -31.7,-31.7 -2.15,-1.92 -5.3,-5.3 -8.52,-4.4 -4.36,1.2 -7.69,7.1 -10.6,10.2 -8.27,8.9 -16.2,18.2 -24.8,26.9 -41.2,41.6 -81.2,85.6 -120,130 -102,116 -213,225 -315,341 -26.2,29.8 -53.4,59.4 -81.6,87.3 -6.62,6.56 -12.9,13.3 -19.2,20.2 -2.05,2.2 -5.18,6.43 -8.52,6.38 -7.52,-0.097 -19.8,-18.5 -24.9,-23.7 l -49.7,-49.9 c -7.52,-7.52 -17.4,-14.8 -23.6,-23.5 -3.2,-4.48 1.4,-8.01 4.44,-11.1 7.48,-7.55 14.5,-15.5 22,-23 32.8,-32.9 62.9,-68.7 95.7,-102 57.5,-58 113,-119 168,-178 60.9,-65.5 124,-129 184,-195 27.2,-29.3 55.1,-57.8 82.1,-87.2 5.44,-5.93 27.8,-22.4 21.8,-30.8 -10.6,-14.9 -27.5,-27.8 -40.5,-40.6 -3.5,-3.43 -8.95,-12.1 -14.5,-12 -4.44,0.102 -10.4,7.47 -13.4,10.4 -10.5,10.3 -21.2,20.4 -31.6,30.7 -40.6,40.2 -81.2,80.4 -122,120 -86.1,82.6 -170,167 -256,250 -27.4,26.2 -52.8,55.1 -81.3,80 -27,23.5 -52.2,50.1 -77.5,75.4 -6.39,6.39 -12.7,12.8 -19.1,19.2 -2.12,2.07 -5.24,6.19 -8.61,5.87 -3.34,-0.318 -6.31,-4.51 -8.33,-6.82 -5.76,-6.55 -11.9,-12.7 -17.9,-19 -23.7,-24.8 -52,-47 -74.1,-73.1 -4.29,-5.08 -0.066,-8.62 3.72,-12.5 7.6,-7.73 15.3,-15.4 23,-23 33.3,-33.4 65.2,-68.3 98.5,-102 74.1,-74.3 147,-151 219,-226 45.1,-47.3 94.5,-91.6 137,-141 25.1,-29 53.7,-56.3 80.8,-83.5 6.61,-6.61 13.4,-13.1 19.5,-20.2 2.25,-2.62 6.27,-5.76 4.71,-9.6 -2.1,-5.19 -7.78,-8.77 -11.5,-12.6 -10.2,-10.4 -20.1,-21.3 -30.9,-31.1 -3.62,-3.3 -9.5,-13.1 -15.3,-10.8 -4.45,1.74 -8.01,7.11 -11.5,10.3 -10.2,9.26 -19.9,19 -29.8,28.5 -31.9,30.7 -64.1,61.2 -96.5,91.5 -74.3,69.4 -148,140 -221,210 -38.6,37 -78.7,72.7 -117,110 -35,34.7 -72.2,67.1 -107,102 -8.19,8.12 -16.7,15.8 -24.9,24 -2.76,2.76 -6.78,8.45 -11.2,5.99 -8.65,-4.81 -16.3,-16.3 -23.2,-23.3 l -51.7,-51.8 c -5.91,-5.91 -12.3,-11.3 -18.2,-17.3 -1.89,-1.94 -5.05,-4.6 -4.36,-7.67 0.899,-3.97 6.24,-7.63 9.12,-10.1 6.69,-5.83 13,-12.2 19.1,-18.6 28.4,-29.8 60.8,-55.5 90,-84.5 114,-113 236,-216 352,-327 33.4,-32 67.2,-63.7 101,-94.8 11.5,-10.5 23.4,-20.9 34.4,-31.8 3.85,-3.8 10.3,-7.55 12.7,-12.5 2.39,-4.89 -5,-10.7 -8.05,-13.7 -9.25,-9.06 -18.6,-18.2 -27.5,-27.5 -2.98,-3.12 -7.82,-10.1 -12.5,-10.3 z m -1369,1652 -903,903 0.0801,0.08 a 178,138 45 0 0 30.1,221 178,138 45 0 0 221,30 l 0.0781,0.078 654,-654 a 178,138 45 0 0 7.3,-6.31 l 0.078,0.078 361,-361 -84.9,-84.7 c -91.5,-4.1 -188,-20.4 -286,-47.9 z"
       fill="#6e95c5"
       id="path1" /><path
       d="m 166,145 a 278,155 43 0 0 88.1,300 278,155 43 0 0 224,113 l 130,125 a 37,77.7 46.7 0 1 -0.175,0.131 l 206,199 0.021,-0.0212 a 26.8,47.2 47.1 0 0 52.9,-14.5 26.8,47.2 47.1 0 0 15,-51 l 0.02,-0.0204 -130,-125 a 26.8,47.2 47.1 0 0 -1.22,-1.43 l 0.02,-0.0204 -177,-170 a 278,155 43 0 0 0.121,-0.159 l -398,-384 a 278,155 43 0 0 -10.5,8.62 z"
       fill="#f5e487"
       id="path2" /><path
       d="m 263,1e-5 c -146,0 -263,117 -263,263 v 498 C 0,907.00001 117,1024 263,1024 h 498 c 146,0 263,-116.99999 263,-262.99999 v -498 c 0,-146 -117,-263 -263,-263 z m 24.3,50 h 449 c 132,0 238,106 238,238 v 449 c 0,132 -106,238 -238,238 h -449 c -132,0 -238,-106 -238,-238 v -449 c 0,-132 106,-238 238,-238 z"
       fill="#929892"
       stroke-width="0.672"
       id="path3" /></g><text
     xml:space="preserve"
     transform="scale(0.26458333)"
     id="text3"
     style="text-align:start;writing-mode:lr-tb;direction:ltr;white-space:pre;shape-inside:url(#rect4);display:inline;fill:#000000"><tspan
       x="1897.6641"
       y="1958.5515"
       id="tspan3">Meal Pe</tspan></text><text
     xml:space="preserve"
     style="font-size:340.125px;text-align:start;writing-mode:lr-tb;direction:ltr;text-anchor:start;fill:#ffffff;stroke-width:0.212578"
     x="598.76257"
     y="1254.4447"
     id="text5"><tspan
       sodipodi:role="line"
       id="tspan5"
       style="font-style:normal;font-variant:normal;font-weight:normal;font-stretch:normal;font-size:340.125px;font-family:'Hammersmith One';-inkscape-font-specification:'Hammersmith One';fill:#ffffff;stroke-width:0.212578"
       x="598.76257"
       y="1254.4447">Meal Pedant</tspan></text><text
     xml:space="preserve"
     style="font-style:normal;font-variant:normal;font-weight:normal;font-stretch:normal;font-size:127.547px;line-height:0;font-family:'Hammersmith One';-inkscape-font-specification:'Hammersmith One';text-align:start;writing-mode:lr-tb;direction:ltr;text-anchor:start;fill:#ffffff;fill-opacity:1;stroke-width:0.212578"
     x="1911.9869"
     y="1412.3118"
     id="text1"
     transform="skewX(-13.638268)"><tspan
       sodipodi:role="line"
       id="tspan1"
       style="font-style:normal;font-variant:normal;font-weight:normal;font-stretch:normal;font-size:127.547px;line-height:0;font-family:'Hammersmith One';-inkscape-font-specification:'Hammersmith One';text-align:center;writing-mode:lr-tb;text-anchor:middle;stroke-width:0.212578"
       x="1911.9869"
       y="1412.3118"
       dy="0">&quot;A meticulous daily log of ingestion&quot;</tspan></text></svg>
