<svg version="1" xmlns="http://www.w3.org/2000/svg" width="1365.333" height="1365.333" viewBox="0 0 1024.000000 1024.000000"><path d="M268 51.1c-54.3 4.5-105.2 27.4-144.1 64.7-40.3 38.6-64.5 86.9-72.1 143.7-1.9 14.7-1.9 490.3 0 505 7.1 53 28.7 98.8 64.2 135.8 20.4 21.3 39.8 35.6 66.5 48.7 24.4 12 49.3 19.5 77 23.2 14.8 1.9 490.3 1.9 505 0 53-7.1 98.8-28.7 135.8-64.2 21.1-20.2 34.9-38.9 48.3-65.7 12.2-24.2 19.8-49.2 23.6-77.8 1.9-14.7 1.9-490.3 0-505-7.2-53.6-28.8-99.1-65-136.6-37.3-38.7-81.5-61.2-138.7-70.7-9.1-1.5-32.3-1.6-250.5-1.8-132.3-.1-244.8.2-250 .7zm114 283.4c112.4 108.3 238.8 230.3 281 271 42.2 40.7 108.8 105 148.1 142.9 43.1 41.5 72.3 70.5 73.7 73 2 3.5 2.3 5.1 1.9 11.2-.3 6-1.1 8.7-4.7 16-3.7 7.4-6 10.5-13.9 18.5-8.2 8.2-11 10.3-19.4 14.4-8.7 4.4-10.6 4.9-18 5.3-5.9.3-9.2 0-11.7-1.1-3-1.3-105.2-99-213.5-204.2-14.8-14.4-49.5-47.9-77-74.3-46.4-44.8-50.2-48.2-54-48.6-2.2-.3-8.3-1-13.5-1.6-47.8-5.5-108.3-32.6-160.4-71.7-67.7-50.8-124.3-122.4-148.4-187.8-20.4-55.3-20.5-100.4-.1-134.8 4.7-7.9 21.9-26.1 24.3-25.5.7.2 93.3 88.9 205.6 197.3zm371.2-191.8c3.2 3.2 5.8 6.2 5.8 6.9 0 .6-3.9 4.6-8.7 9-4.8 4.3-16.7 15.3-26.3 24.4-9.6 9.1-31 28.9-47.5 44-27.3 24.9-50.3 46.5-73.4 68.7l-8.6 8.2 13 13.1c7.1 7.1 13.4 13 14 13 .9 0 9.1-7.6 53.2-49.5 10.4-9.9 39.3-37.4 64.2-61 24.9-23.7 45.7-43.1 46.2-43.3.8-.3 14.9 13.4 14.9 14.5 0 .7-27.3 29.5-52.5 55.3-21.1 21.6-68.6 70.6-92.5 95.3l-11.3 11.8 13.7 13.5c7.5 7.4 14.1 13.4 14.6 13.2.8-.3 88.3-85.5 136.6-133 12.7-12.6 23.5-22.8 24-22.8.6 0 4.3 3.1 8.3 6.9 5.2 5.1 7 7.4 6.4 8.4-.4.8-15.4 16.9-33.3 35.8-17.9 18.8-39.9 42.2-48.9 51.8-9.1 9.7-28.2 30-42.5 45.1-14.4 15.1-26.7 28.3-27.5 29.3-1.3 1.7-.3 2.9 11.5 14.8 7.1 7.1 13.3 12.9 13.8 12.9 1 0 17.4-17.2 32.6-34 5.7-6.3 23-25 38.5-41.5s34.6-37.2 42.5-46c7.9-8.8 20.1-22.1 27.2-29.5l12.8-13.4 6.5 6.4c3.6 3.6 6.3 7 6.1 7.6-.2.6-5.4 8.7-11.4 18s-27.5 43-47.7 74.9c-47.4 74.7-48.5 76.4-54.6 81.9-6.6 6-15.4 10.8-24.9 13.8-6.7 2-9.4 2.3-24.5 2.3-13.7-.1-20.4-.6-34.5-2.9-21.4-3.5-41.3-3.9-55.6-1.2l-9.1 1.7-17.9 18c-9.8 9.8-18.3 17.9-18.9 17.9-.5 0-15.7-14.7-33.7-32.7L521 437.5l17.9-18 18-18 1.8-8.5c3-13.9 2.5-39-1.2-61-3.9-23.4-4.1-42.8-.6-54 5.5-17.8 14.5-29.2 32.1-40.7 9.8-6.3 121.6-78 139.5-89.3 5.5-3.5 11.4-7.4 13-8.7 1.7-1.2 3.7-2.3 4.5-2.3.8 0 4 2.6 7.2 5.7zM394.7 576.5c20.1 5 48.3 9.5 59.6 9.5h5.2l11.5 11.5 11.5 11.5-136.9 136.3c-97.3 96.8-138.2 136.9-141.5 138.6-5.7 3-16.5 3.9-24.2 2.1-24.4-5.8-44.7-31.5-42.6-54 1.2-13.4-6.5-5 125.6-137.3C329.2 628.3 383.8 574 384.2 574c.4 0 5.1 1.1 10.5 2.5z"/></svg>